<svg width="748" height="534" viewBox="0 0 748 534" fill="none" xmlns="http://www.w3.org/2000/svg">
<path d="M282.439 123.839C360.017 103.052 442.255 100.458 507.701 113.001C540.425 119.272 568.86 129.311 590.395 142.675C611.934 156.042 626.423 172.635 631.608 191.988C642.025 230.865 621.529 270.471 578.397 305.831C535.319 341.148 470.097 371.815 392.416 392.629C314.771 413.434 231.866 420.348 165.778 412.117C132.73 408 103.998 400.11 82.2532 388.363C60.5155 376.619 45.9266 361.121 40.7547 341.819C30.3283 302.907 51.4885 258.956 95.2868 219.241C138.998 179.606 204.831 144.634 282.439 123.839Z" stroke="#3A2C1E" stroke-opacity="0.9" stroke-width="4"/>
<path d="M278.155 137.318C351.397 99.9989 425.07 80.8847 484.92 80.073C544.914 79.2593 590.329 96.8021 608.228 131.93C626.127 167.058 613.625 214.112 577.703 262.17C541.867 310.113 483.1 358.48 409.858 395.799C336.616 433.118 262.943 452.232 203.093 453.044C143.099 453.857 97.6834 436.314 79.7846 401.186C61.8861 366.057 74.388 319.004 110.31 270.947C146.146 223.003 204.913 174.636 278.155 137.318Z" stroke="#3A2C1E" stroke-opacity="0.9" stroke-width="4"/>
<path d="M676.767 105.756L676.889 107.505L678.639 107.612L721.039 110.222L678.579 114.125L676.875 114.281L676.766 115.99L674.227 155.941L669.75 115.894L669.572 114.304L667.983 114.128L629.794 109.9L667.882 107.612L669.581 107.51L669.753 105.818L673.905 64.789L676.767 105.756Z" stroke="#3A2C1E" stroke-width="4"/>
<mask id="path-4-inside-1_22_14" fill="white">
<path d="M682.918 184.174L701.362 183.066L703.315 163.777L704.662 183.066L725.189 184.329L704.662 186.216L703.467 205.034L701.362 186.216L682.918 184.174Z"/>
</mask>
<path d="M682.918 184.174L682.678 180.181L682.477 188.15L682.918 184.174ZM703.315 163.777L707.305 163.498L699.335 163.374L703.315 163.777ZM725.189 184.329L725.555 188.313L725.434 180.337L725.189 184.329ZM703.467 205.034L699.491 205.478L707.459 205.288L703.467 205.034ZM701.362 183.066L701.602 187.059L704.999 186.855L705.342 183.469L701.362 183.066ZM704.662 183.066L700.672 183.345L700.916 186.843L704.417 187.059L704.662 183.066ZM704.662 186.216L704.296 182.233L700.887 182.546L700.67 185.963L704.662 186.216ZM701.362 186.216L705.337 185.772L704.982 182.593L701.802 182.241L701.362 186.216ZM682.918 184.174L683.157 188.167L701.602 187.059L701.362 183.066L701.122 179.073L682.678 180.181L682.918 184.174ZM701.362 183.066L705.342 183.469L707.295 164.18L703.315 163.777L699.335 163.374L697.383 182.663L701.362 183.066ZM703.315 163.777L699.325 164.055L700.672 183.345L704.662 183.066L708.652 182.788L707.305 163.498L703.315 163.777ZM704.662 183.066L704.417 187.059L724.943 188.322L725.189 184.329L725.434 180.337L704.908 179.074L704.662 183.066ZM725.189 184.329L724.822 180.346L704.296 182.233L704.662 186.216L705.028 190.199L725.555 188.313L725.189 184.329ZM704.662 186.216L700.67 185.963L699.475 204.78L703.467 205.034L707.459 205.288L708.654 186.47L704.662 186.216ZM703.467 205.034L707.442 204.589L705.337 185.772L701.362 186.216L697.387 186.661L699.491 205.478L703.467 205.034ZM701.362 186.216L701.802 182.241L683.358 180.198L682.918 184.174L682.477 188.15L700.922 190.192L701.362 186.216Z" fill="#3A2C1E" mask="url(#path-4-inside-1_22_14)"/>
</svg>
